<svg width="541" height="262" viewBox="0 0 541 262" fill="none" xmlns="http://www.w3.org/2000/svg">
<g opacity="0.998699">
<path d="M15.2185 246.515V22.7747H53.4075V246.515H15.2185Z" fill="black"/>
<path d="M110.934 249.155C92.398 249.155 78.7751 244.645 70.0653 235.625C61.3556 226.385 57.0007 213.955 57.0007 198.335V168.305H92.5097V198.995C92.5097 212.195 98.7628 218.795 111.269 218.795C122.882 218.795 128.689 212.195 128.689 198.995V190.415C128.689 184.255 127.349 178.865 124.669 174.245C122.212 169.625 117.857 164.455 111.604 158.735L89.1598 136.625C77.3234 125.185 69.0603 115.395 64.3705 107.255C59.6806 99.1147 57.3357 88.9947 57.3357 76.8947V69.3047C57.3357 54.5647 61.8022 42.6847 70.7353 33.6647C79.6684 24.6447 93.068 20.1347 110.934 20.1347C129.47 20.1347 142.982 24.4247 151.468 33.0047C159.954 41.5847 164.198 54.2347 164.198 70.9547V89.1047H129.359V69.6347C129.359 56.8747 123.329 50.4947 111.269 50.4947C99.2095 50.4947 93.1797 56.6547 93.1797 68.9747V73.5947C93.1797 79.3147 94.5196 84.2647 97.1996 88.4447C100.103 92.6247 104.793 97.7947 111.269 103.955L135.723 127.715C147.113 139.155 155.041 148.835 159.508 156.755C164.198 164.455 166.543 174.135 166.543 185.795V196.685C166.543 212.745 161.964 225.505 152.808 234.965C143.652 244.425 129.694 249.155 110.934 249.155Z" fill="black"/>
<path d="M227.084 249.155C207.878 249.155 193.585 243.655 184.205 232.655C174.826 221.655 170.136 207.025 170.136 188.765V80.5247C170.136 62.0447 174.826 47.4147 184.205 36.6347C193.585 25.6347 207.878 20.1347 227.084 20.1347C246.96 20.1347 260.918 24.9747 268.958 34.6547C276.998 44.3347 281.018 58.1947 281.018 76.2347V102.635H246.179V73.2647C246.179 58.7447 240.037 51.4847 227.754 51.4847C214.801 51.4847 208.325 59.1847 208.325 74.5847V194.705C208.325 210.105 214.801 217.805 227.754 217.805C240.037 217.805 246.179 210.545 246.179 196.025V154.775H281.018V193.385C281.018 230.565 263.04 249.155 227.084 249.155Z" fill="black"/>
<path d="M359.314 246.515L323.47 143.885V246.515H285.281V22.7747H340.889C359.425 22.7747 372.825 27.0647 381.088 35.6447C389.351 44.2247 393.483 56.6547 393.483 72.9347V101.645C393.483 125.845 383.321 140.255 362.999 144.875L399.513 246.515H359.314ZM336.199 53.4647H323.47V123.095H336.199C348.706 123.095 354.959 116.935 354.959 104.615V71.6147C354.959 59.5147 348.706 53.4647 336.199 53.4647Z" fill="black"/>
<path d="M389.97 246.515H353.791L396.67 22.7747H440.219L483.432 246.515H444.238L437.204 205.595H396.67L389.97 246.515ZM416.769 85.8047L401.695 175.565H432.179L417.104 85.8047H416.769Z" fill="#F67F03"/>
</g>
<path d="M5 261.217V0" stroke="black" stroke-width="8.06028"/>
<path d="M462.387 81.9036L447.679 5.93301L462.387 81.9036Z" fill="#F67F03"/>
<path d="M462.387 81.9036L447.679 5.93301" stroke="#F67F03" stroke-width="8.06028" stroke-linecap="round"/>
<path d="M478.487 84.0604L494.766 49.0023L478.487 84.0604ZM500.809 35.9897L509.072 18.1949L500.809 35.9897Z" fill="#F67F03"/>
<path d="M478.487 84.0604L494.766 49.0023M500.809 35.9897L509.072 18.1949" stroke="#F67F03" stroke-width="8.06028" stroke-linecap="round"/>
<path d="M490.145 97.6846L536.39 93.1875L490.145 97.6846Z" fill="#F67F03"/>
<path d="M490.145 97.6846L536.39 93.1875" stroke="#F67F03" stroke-width="8.06028" stroke-linecap="round"/>
<path d="M485.369 117.285L508.248 131.088L485.369 117.285ZM520.794 138.658L533.762 146.481L520.794 138.658Z" fill="#F67F03"/>
<path d="M485.369 117.285L508.248 131.088M520.794 138.658L533.762 146.481" stroke="#F67F03" stroke-width="8.06028" stroke-linecap="round"/>
<path d="M470.687 127.265L495.663 255.407L470.687 127.265Z" fill="#F67F03"/>
<path d="M470.687 127.265L495.663 255.407" stroke="#F67F03" stroke-width="8.06028" stroke-linecap="round"/>
</svg>
